<?xml version="1.0" encoding="us-ascii" standalone="no"?><svg xmlns="http://www.w3.org/2000/svg" xmlns:xlink="http://www.w3.org/1999/xlink" contentStyleType="text/css" height="613px" preserveAspectRatio="none" style="width:429px;height:613px;background:#FFFFFF;" version="1.1" viewBox="0 0 429 613" width="429px" zoomAndPan="magnify"><defs/><g><ellipse cx="281.81" cy="16" fill="#222222" rx="10" ry="10" style="stroke:#222222;stroke-width:1.0;"/><g id="LookingForOneFirst"><rect fill="#F1F1F1" height="50" rx="12.5" ry="12.5" style="stroke:#181818;stroke-width:0.5;" width="150" x="206.81" y="87"/><line style="stroke:#181818;stroke-width:0.5;" x1="206.81" x2="356.81" y1="116.0679" y2="116.0679"/><text fill="#000000" font-family="sans-serif" font-size="14" lengthAdjust="spacing" textLength="130" x="216.81" y="106.9659">LookingForOneFirst</text></g><g id="Valid"><rect fill="#F1F1F1" height="50" rx="12.5" ry="12.5" style="stroke:#181818;stroke-width:0.5;" width="53" x="134.31" y="216"/><line style="stroke:#181818;stroke-width:0.5;" x1="134.31" x2="187.31" y1="245.0679" y2="245.0679"/><text fill="#000000" font-family="sans-serif" font-size="14" lengthAdjust="spacing" textLength="33" x="144.31" y="235.9659">Valid</text></g><g id="Invalid"><rect fill="#F1F1F1" height="50" rx="12.5" ry="12.5" style="stroke:#181818;stroke-width:0.5;" width="66" x="194.81" y="474"/><line style="stroke:#181818;stroke-width:0.5;" x1="194.81" x2="260.81" y1="503.0679" y2="503.0679"/><text fill="#000000" font-family="sans-serif" font-size="14" lengthAdjust="spacing" textLength="46" x="204.81" y="493.9659">Invalid</text></g><g id="Incomplete"><rect fill="#F1F1F1" height="50" rx="12.5" ry="12.5" style="stroke:#181818;stroke-width:0.5;" width="96" x="63.81" y="345"/><line style="stroke:#181818;stroke-width:0.5;" x1="63.81" x2="159.81" y1="374.0679" y2="374.0679"/><text fill="#000000" font-family="sans-serif" font-size="14" lengthAdjust="spacing" textLength="76" x="73.81" y="364.9659">Incomplete</text></g><ellipse cx="103.81" cy="596" fill="none" rx="11" ry="11" style="stroke:#222222;stroke-width:1.0;"/><ellipse cx="103.81" cy="596" fill="#222222" rx="6" ry="6" style="stroke:#222222;stroke-width:1.0;"/><!--link *start* to LookingForOneFirst--><g id="link_*start*_LookingForOneFirst"><path d="M281.81,26.01 C281.81,39.89 281.81,60.97 281.81,80.84 " fill="none" id="*start*-to-LookingForOneFirst" style="stroke:#181818;stroke-width:1.0;"/><polygon fill="#181818" points="281.81,86.84,285.81,77.84,281.81,81.84,277.81,77.84,281.81,86.84" style="stroke:#181818;stroke-width:1.0;"/></g><!--link LookingForOneFirst to Valid--><g id="link_LookingForOneFirst_Valid"><path d="M258.77,137.19 C237.24,159.78 209.4084,188.9856 187.9084,211.5556 " fill="none" id="LookingForOneFirst-to-Valid" style="stroke:#181818;stroke-width:1.0;"/><polygon fill="#181818" points="183.77,215.9,192.8739,212.1424,187.2187,212.2797,187.0814,206.6245,183.77,215.9" style="stroke:#181818;stroke-width:1.0;"/><text fill="#000000" font-family="sans-serif" font-size="13" lengthAdjust="spacing" textLength="7" x="229.81" y="181.897">1</text></g><!--link LookingForOneFirst to Invalid--><g id="link_LookingForOneFirst_Invalid"><path d="M294.05,137.36 C317.45,187.44 363.11,304.86 326.81,395 C313.56,427.9 288.9146,452.4436 265.5946,471.0036 " fill="none" id="LookingForOneFirst-to-Invalid" style="stroke:#181818;stroke-width:1.0;"/><polygon fill="#181818" points="260.9,474.74,270.4329,472.2652,264.8122,471.6264,265.451,466.0057,260.9,474.74" style="stroke:#181818;stroke-width:1.0;"/><text fill="#000000" font-family="sans-serif" font-size="13" lengthAdjust="spacing" textLength="80" x="341.81" y="310.897">anything else</text></g><!--link Valid to Valid--><g id="link_Valid_Valid"><path d="M187.36,230.06 C205.07,226.98 222.31,230.62 222.31,241 C222.31,251.38 210.9813,256.048 193.2713,252.968 " fill="none" id="Valid-to-Valid" style="stroke:#181818;stroke-width:1.0;"/><polygon fill="#181818" points="187.36,251.94,195.5415,257.4229,192.2861,252.7967,196.9123,249.5412,187.36,251.94" style="stroke:#181818;stroke-width:1.0;"/><text fill="#000000" font-family="sans-serif" font-size="13" lengthAdjust="spacing" textLength="7" x="228.31" y="246.397">1</text></g><!--link Valid to Incomplete--><g id="link_Valid_Incomplete"><path d="M151.48,266.19 C142.76,288.78 131.968,316.7315 123.268,339.3015 " fill="none" id="Valid-to-Incomplete" style="stroke:#181818;stroke-width:1.0;"/><polygon fill="#181818" points="121.11,344.9,128.0794,337.941,122.9084,340.2346,120.6147,335.0636,121.11,344.9" style="stroke:#181818;stroke-width:1.0;"/><text fill="#000000" font-family="sans-serif" font-size="13" lengthAdjust="spacing" textLength="7" x="140.81" y="310.897">0</text></g><!--link Incomplete to Valid--><g id="link_Incomplete_Valid"><path d="M109.85,344.85 C109.53,330.23 110.7,311.48 116.81,296 C121.07,285.2 124.4296,279.4693 131.8296,270.8193 " fill="none" id="Incomplete-to-Valid" style="stroke:#181818;stroke-width:1.0;"/><polygon fill="#181818" points="135.73,266.26,126.8399,270.4986,132.4797,270.0594,132.9189,275.6992,135.73,266.26" style="stroke:#181818;stroke-width:1.0;"/><text fill="#000000" font-family="sans-serif" font-size="13" lengthAdjust="spacing" textLength="7" x="117.81" y="310.897">1</text></g><!--link Valid to Invalid--><g id="link_Valid_Invalid"><path d="M176.62,266.15 C197.64,299.98 233.44,364.18 244.81,425 C247.87,441.37 245.6213,453.9636 240.6113,468.1236 " fill="none" id="Valid-to-Invalid" style="stroke:#181818;stroke-width:1.0;"/><polygon fill="#181818" points="238.61,473.78,245.3829,466.6296,240.2778,469.0663,237.841,463.9612,238.61,473.78" style="stroke:#181818;stroke-width:1.0;"/><text fill="#000000" font-family="sans-serif" font-size="13" lengthAdjust="spacing" textLength="80" x="237.81" y="375.397">anything else</text></g><!--link Valid to *end*--><g id="link_Valid_*end*"><path d="M134.13,256.64 C106.15,273.69 63.8,304.75 45.81,345 C6,434.09 73.4788,548.6802 94.7588,581.4002 " fill="none" id="Valid-to-*end*" style="stroke:#181818;stroke-width:1.0;"/><polygon fill="#181818" points="98.03,586.43,96.4764,576.7045,95.304,582.2385,89.7699,581.0661,98.03,586.43" style="stroke:#181818;stroke-width:1.0;"/></g><!--link Incomplete to Incomplete--><g id="link_Incomplete_Incomplete"><path d="M159.99,358.06 C178.96,357.46 194.81,361.44 194.81,370 C194.81,378.56 184.957,382.7297 165.987,382.1297 " fill="none" id="Incomplete-to-Incomplete" style="stroke:#181818;stroke-width:1.0;"/><polygon fill="#181818" points="159.99,381.94,168.859,386.2225,164.9875,382.0981,169.112,378.2265,159.99,381.94" style="stroke:#181818;stroke-width:1.0;"/><text fill="#000000" font-family="sans-serif" font-size="13" lengthAdjust="spacing" textLength="7" x="200.81" y="375.397">0</text></g><!--link Incomplete to Invalid--><g id="link_Incomplete_Invalid"><path d="M124.58,395.1 C133.14,410.06 145.3,429.19 158.81,444 C169.37,455.58 177.7981,462.9826 189.8381,472.0026 " fill="none" id="Incomplete-to-Invalid" style="stroke:#181818;stroke-width:1.0;"/><polygon fill="#181818" points="194.64,475.6,189.8354,467.0026,190.6384,472.6021,185.0388,473.4051,194.64,475.6" style="stroke:#181818;stroke-width:1.0;"/><text fill="#000000" font-family="sans-serif" font-size="13" lengthAdjust="spacing" textLength="80" x="159.81" y="439.897">anything else</text></g><!--link Incomplete to *end*--><g id="link_Incomplete_*end*"><path d="M110.94,395.4 C109.2,443.93 105.6049,544.8039 104.3949,578.5639 " fill="none" id="Incomplete-to-*end*" style="stroke:#181818;stroke-width:1.0;"/><polygon fill="#181818" points="104.18,584.56,108.4998,575.709,104.3591,579.5632,100.5049,575.4225,104.18,584.56" style="stroke:#181818;stroke-width:1.0;"/></g><!--link Invalid to *end*--><g id="link_Invalid_*end*"><path d="M196.2,524.22 C168.21,545.66 134.0227,571.8508 117.0427,584.8608 " fill="none" id="Invalid-to-*end*" style="stroke:#181818;stroke-width:1.0;"/><polygon fill="#181818" points="112.28,588.51,121.8569,586.2114,116.2489,585.469,116.9913,579.8611,112.28,588.51" style="stroke:#181818;stroke-width:1.0;"/></g><!--SRC=[YzQALT3LjLFmoS_FpinBTyilyizBTSiiAYxXmXG2gmnBpCbCiL8mn2NlcLS6KP6OLrcI0LIWa9fJdCh51TQ7QW92o3ClEJ-t82Ur9DLAmG157AjX20NHMh5SN0ZTgEQZYQDQWY69rIOqLL3hob3i1m00]--></g></svg>