<?xml version="1.0" encoding="us-ascii" standalone="no"?><svg xmlns="http://www.w3.org/2000/svg" xmlns:xlink="http://www.w3.org/1999/xlink" contentStyleType="text/css" height="690px" preserveAspectRatio="none" style="width:560px;height:690px;background:#FFFFFF;" version="1.1" viewBox="0 0 560 690" width="560px" zoomAndPan="magnify"><defs/><g><ellipse cx="191.5" cy="16" fill="#222222" rx="10" ry="10" style="stroke:#222222;stroke-width:1.0;"/><g id="LookingForAllRequirements"><rect fill="#F1F1F1" height="50" rx="12.5" ry="12.5" style="stroke:#181818;stroke-width:0.5;" width="205" x="89" y="87"/><line style="stroke:#181818;stroke-width:0.5;" x1="89" x2="294" y1="116.0679" y2="116.0679"/><text fill="#000000" font-family="sans-serif" font-size="14" lengthAdjust="spacing" textLength="185" x="99" y="106.9659">LookingForAllRequirements</text></g><g id="LookingForCapitalLetter"><rect fill="#F1F1F1" height="50" rx="12.5" ry="12.5" style="stroke:#181818;stroke-width:0.5;" width="179" x="7" y="296"/><line style="stroke:#181818;stroke-width:0.5;" x1="7" x2="186" y1="325.0679" y2="325.0679"/><text fill="#000000" font-family="sans-serif" font-size="14" lengthAdjust="spacing" textLength="159" x="17" y="315.9659">LookingForCapitalLetter</text></g><g id="LookingForSpecialCharacter"><rect fill="#F1F1F1" height="50" rx="12.5" ry="12.5" style="stroke:#181818;stroke-width:0.5;" width="207" x="212" y="216"/><line style="stroke:#181818;stroke-width:0.5;" x1="212" x2="419" y1="245.0679" y2="245.0679"/><text fill="#000000" font-family="sans-serif" font-size="14" lengthAdjust="spacing" textLength="187" x="222" y="235.9659">LookingForSpecialCharacter</text></g><g id="Valid"><rect fill="#F1F1F1" height="50" rx="12.5" ry="12.5" style="stroke:#181818;stroke-width:0.5;" width="53" x="128" y="505"/><line style="stroke:#181818;stroke-width:0.5;" x1="128" x2="181" y1="534.0679" y2="534.0679"/><text fill="#000000" font-family="sans-serif" font-size="14" lengthAdjust="spacing" textLength="33" x="138" y="524.9659">Valid</text></g><g id="LookingForNonSpecialCharacter"><rect fill="#F1F1F1" height="50" rx="12.5" ry="12.5" style="stroke:#181818;stroke-width:0.5;" width="235" x="204" y="376"/><line style="stroke:#181818;stroke-width:0.5;" x1="204" x2="439" y1="405.0679" y2="405.0679"/><text fill="#000000" font-family="sans-serif" font-size="14" lengthAdjust="spacing" textLength="215" x="214" y="395.9659">LookingForNonSpecialCharacter</text></g><ellipse cx="115.5" cy="659" fill="none" rx="11" ry="11" style="stroke:#222222;stroke-width:1.0;"/><ellipse cx="115.5" cy="659" fill="#222222" rx="6" ry="6" style="stroke:#222222;stroke-width:1.0;"/><g id="Invalid"><rect fill="#F1F1F1" height="50" rx="12.5" ry="12.5" style="stroke:#181818;stroke-width:0.5;" width="66" x="161.5" y="634"/><line style="stroke:#181818;stroke-width:0.5;" x1="161.5" x2="227.5" y1="663.0679" y2="663.0679"/><text fill="#000000" font-family="sans-serif" font-size="14" lengthAdjust="spacing" textLength="46" x="171.5" y="653.9659">Invalid</text></g><!--link *start* to LookingForAllRequirements--><g id="link_*start*_LookingForAllRequirements"><path d="M191.5,26.01 C191.5,39.89 191.5,60.97 191.5,80.84 " fill="none" id="*start*-to-LookingForAllRequirements" style="stroke:#181818;stroke-width:1.0;"/><polygon fill="#181818" points="191.5,86.84,195.5,77.84,191.5,81.84,187.5,77.84,191.5,86.84" style="stroke:#181818;stroke-width:1.0;"/></g><!--link LookingForAllRequirements to LookingForCapitalLetter--><g id="link_LookingForAllRequirements_LookingForCapitalLetter"><path d="M180.42,137.15 C162.16,176.93 128.473,250.337 110.163,290.227 " fill="none" id="LookingForAllRequirements-to-LookingForCapitalLetter" style="stroke:#181818;stroke-width:1.0;"/><polygon fill="#181818" points="107.66,295.68,115.0498,289.1692,109.7458,291.1358,107.7792,285.8319,107.66,295.68" style="stroke:#181818;stroke-width:1.0;"/><text fill="#000000" font-family="sans-serif" font-size="13" lengthAdjust="spacing" textLength="67" x="167.5" y="181.897">[!@#$%&amp;*]</text></g><!--link LookingForAllRequirements to LookingForSpecialCharacter--><g id="link_LookingForAllRequirements_LookingForSpecialCharacter"><path d="M215.12,137.19 C237.18,159.78 265.749,189.0363 287.779,211.6063 " fill="none" id="LookingForAllRequirements-to-LookingForSpecialCharacter" style="stroke:#181818;stroke-width:1.0;"/><polygon fill="#181818" points="291.97,215.9,288.546,206.6655,288.4775,212.3219,282.8211,212.2534,291.97,215.9" style="stroke:#181818;stroke-width:1.0;"/><text fill="#000000" font-family="sans-serif" font-size="13" lengthAdjust="spacing" textLength="27" x="262.5" y="181.897">[A-Z]</text></g><!--link LookingForAllRequirements to LookingForAllRequirements--><g id="link_LookingForAllRequirements_LookingForAllRequirements"><path d="M294.04,102.29 C314.45,103.39 329,106.62 329,112 C329,117.38 320.4413,120.2871 300.0313,121.3871 " fill="none" id="LookingForAllRequirements-to-LookingForAllRequirements" style="stroke:#181818;stroke-width:1.0;"/><polygon fill="#181818" points="294.04,121.71,303.2422,125.2198,299.0328,121.4409,302.8117,117.2314,294.04,121.71" style="stroke:#181818;stroke-width:1.0;"/><text fill="#000000" font-family="sans-serif" font-size="13" lengthAdjust="spacing" textLength="80" x="335" y="117.397">anything else</text></g><!--link LookingForCapitalLetter to Valid--><g id="link_LookingForCapitalLetter_Valid"><path d="M103.27,346.15 C114.41,385.93 134.8908,459.0126 146.0708,498.9026 " fill="none" id="LookingForCapitalLetter-to-Valid" style="stroke:#181818;stroke-width:1.0;"/><polygon fill="#181818" points="147.69,504.68,149.1127,494.9344,146.3406,499.8655,141.4096,497.0934,147.69,504.68" style="stroke:#181818;stroke-width:1.0;"/><text fill="#000000" font-family="sans-serif" font-size="13" lengthAdjust="spacing" textLength="27" x="126.5" y="406.397">[A-Z]</text></g><!--link LookingForCapitalLetter to LookingForCapitalLetter--><g id="link_LookingForCapitalLetter_LookingForCapitalLetter"><path d="M186.03,306.37 C206.23,307.68 221,312.56 221,321 C221,329.44 212.2174,333.9317 192.0174,335.2417 " fill="none" id="LookingForCapitalLetter-to-LookingForCapitalLetter" style="stroke:#181818;stroke-width:1.0;"/><polygon fill="#181818" points="186.03,335.63,195.27,339.0392,191.0195,335.3064,194.7523,331.0559,186.03,335.63" style="stroke:#181818;stroke-width:1.0;"/><text fill="#000000" font-family="sans-serif" font-size="13" lengthAdjust="spacing" textLength="80" x="227" y="326.397">anything else</text></g><!--link LookingForSpecialCharacter to LookingForNonSpecialCharacter--><g id="link_LookingForSpecialCharacter_LookingForNonSpecialCharacter"><path d="M316.42,266.34 C317.56,296.12 319.2337,340.2243 320.3537,369.8943 " fill="none" id="LookingForSpecialCharacter-to-LookingForNonSpecialCharacter" style="stroke:#181818;stroke-width:1.0;"/><polygon fill="#181818" points="320.58,375.89,324.2377,366.7455,320.3914,370.8936,316.2434,367.0473,320.58,375.89" style="stroke:#181818;stroke-width:1.0;"/><text fill="#000000" font-family="sans-serif" font-size="13" lengthAdjust="spacing" textLength="67" x="319.5" y="326.397">[!@#$%&amp;*]</text></g><!--link LookingForSpecialCharacter to LookingForSpecialCharacter--><g id="link_LookingForSpecialCharacter_LookingForSpecialCharacter"><path d="M419.09,229.51 C439.49,230.83 454,234.66 454,241 C454,247.34 445.4775,250.7826 425.0775,252.1026 " fill="none" id="LookingForSpecialCharacter-to-LookingForSpecialCharacter" style="stroke:#181818;stroke-width:1.0;"/><polygon fill="#181818" points="419.09,252.49,428.3295,255.9005,424.0796,252.1671,427.8129,247.9172,419.09,252.49" style="stroke:#181818;stroke-width:1.0;"/><text fill="#000000" font-family="sans-serif" font-size="13" lengthAdjust="spacing" textLength="80" x="460" y="246.397">anything else</text></g><!--link LookingForNonSpecialCharacter to LookingForNonSpecialCharacter--><g id="link_LookingForNonSpecialCharacter_LookingForNonSpecialCharacter"><path d="M439.15,389.75 C459.7,391.25 474,395 474,401 C474,407 465.6841,410.3132 445.1341,411.8132 " fill="none" id="LookingForNonSpecialCharacter-to-LookingForNonSpecialCharacter" style="stroke:#181818;stroke-width:1.0;"/><polygon fill="#181818" points="439.15,412.25,448.4173,415.5842,444.1367,411.886,447.8349,407.6054,439.15,412.25" style="stroke:#181818;stroke-width:1.0;"/><text fill="#000000" font-family="sans-serif" font-size="13" lengthAdjust="spacing" textLength="67" x="480" y="406.397">[!@#$%&amp;*]</text></g><!--link LookingForNonSpecialCharacter to Valid--><g id="link_LookingForNonSpecialCharacter_Valid"><path d="M289.7,426.19 C258.28,450.08 215.5364,482.5888 186.0064,505.0388 " fill="none" id="LookingForNonSpecialCharacter-to-Valid" style="stroke:#181818;stroke-width:1.0;"/><polygon fill="#181818" points="181.23,508.67,190.8154,506.4074,185.2103,505.644,185.9738,500.0389,181.23,508.67" style="stroke:#181818;stroke-width:1.0;"/><text fill="#000000" font-family="sans-serif" font-size="13" lengthAdjust="spacing" textLength="80" x="249.5" y="470.897">anything else</text></g><!--link Valid to *end*--><g id="link_Valid_*end*"><path d="M147.07,555.19 C138.41,583.4 126.2612,622.9443 120.2212,642.6143 " fill="none" id="Valid-to-*end*" style="stroke:#181818;stroke-width:1.0;"/><polygon fill="#181818" points="118.46,648.35,124.9256,640.9206,119.9277,643.5703,117.2781,638.5723,118.46,648.35" style="stroke:#181818;stroke-width:1.0;"/></g><!--link Valid to Valid--><g id="link_Valid_Valid"><path d="M181.05,519.06 C198.76,515.98 216,519.62 216,530 C216,540.38 204.6713,545.048 186.9613,541.968 " fill="none" id="Valid-to-Valid" style="stroke:#181818;stroke-width:1.0;"/><polygon fill="#181818" points="181.05,540.94,189.2315,546.4229,185.9761,541.7967,190.6023,538.5412,181.05,540.94" style="stroke:#181818;stroke-width:1.0;"/><text fill="#000000" font-family="sans-serif" font-size="13" lengthAdjust="spacing" textLength="80" x="222" y="535.397">anything else</text></g><!--link Valid to Invalid--><g id="link_Valid_Invalid"><path d="M162.12,555.19 C169.24,577.78 177.9972,605.6072 185.1072,628.1772 " fill="none" id="Valid-to-Invalid" style="stroke:#181818;stroke-width:1.0;"/><polygon fill="#181818" points="186.91,633.9,188.021,624.114,185.4077,629.131,180.3907,626.5177,186.91,633.9" style="stroke:#181818;stroke-width:1.0;"/><text fill="#000000" font-family="sans-serif" font-size="13" lengthAdjust="spacing" textLength="67" x="178.5" y="599.897">[!@#$%&amp;*]</text></g><!--SRC=[YzQALT3LjLFmoS_FpinBTyilSip92KejBCqiIirDpIifvkB2AOMcqJcn8BCaCSSdjQGajSXA8LhHGLb5LKqhbcW3WWjIapCJSvmp4eiIao5cEEf64QyVJTPA8J6liYG3AAUGcbESYkmH5AU2JGbBpCbCmRGGKo5E_-Aq3DrRQCRuvUTXyJYMm2DW3gOXE5s4nKfo7ONBA6XueZa1B0gMZmQQWk1XLOsGzimhWqOFt0K0]--></g></svg>