<?xml version="1.0" encoding="us-ascii" standalone="no"?><svg xmlns="http://www.w3.org/2000/svg" xmlns:xlink="http://www.w3.org/1999/xlink" contentStyleType="text/css" height="561px" preserveAspectRatio="none" style="width:585px;height:561px;background:#FFFFFF;" version="1.1" viewBox="0 0 585 561" width="585px" zoomAndPan="magnify"><defs/><g><ellipse cx="222.5" cy="16" fill="#222222" rx="10" ry="10" style="stroke:#222222;stroke-width:1.0;"/><g id="LookingForAllRequirements"><rect fill="#F1F1F1" height="50" rx="12.5" ry="12.5" style="stroke:#181818;stroke-width:0.5;" width="205" x="120" y="87"/><line style="stroke:#181818;stroke-width:0.5;" x1="120" x2="325" y1="116.0679" y2="116.0679"/><text fill="#000000" font-family="sans-serif" font-size="14" lengthAdjust="spacing" textLength="185" x="130" y="106.9659">LookingForAllRequirements</text></g><g id="LookingForCapitalLetter"><rect fill="#F1F1F1" height="50" rx="12.5" ry="12.5" style="stroke:#181818;stroke-width:0.5;" width="179" x="7" y="216"/><line style="stroke:#181818;stroke-width:0.5;" x1="7" x2="186" y1="245.0679" y2="245.0679"/><text fill="#000000" font-family="sans-serif" font-size="14" lengthAdjust="spacing" textLength="159" x="17" y="235.9659">LookingForCapitalLetter</text></g><g id="LookingForSpecialCharacter"><rect fill="#F1F1F1" height="50" rx="12.5" ry="12.5" style="stroke:#181818;stroke-width:0.5;" width="207" x="244" y="296"/><line style="stroke:#181818;stroke-width:0.5;" x1="244" x2="451" y1="325.0679" y2="325.0679"/><text fill="#000000" font-family="sans-serif" font-size="14" lengthAdjust="spacing" textLength="187" x="254" y="315.9659">LookingForSpecialCharacter</text></g><g id="Valid"><rect fill="#F1F1F1" height="50" rx="12.5" ry="12.5" style="stroke:#181818;stroke-width:0.5;" width="53" x="85" y="376"/><line style="stroke:#181818;stroke-width:0.5;" x1="85" x2="138" y1="405.0679" y2="405.0679"/><text fill="#000000" font-family="sans-serif" font-size="14" lengthAdjust="spacing" textLength="33" x="95" y="395.9659">Valid</text></g><g id="LookingForNonSpecialCharacter"><rect fill="#F1F1F1" height="50" rx="12.5" ry="12.5" style="stroke:#181818;stroke-width:0.5;" width="235" x="135" y="505"/><line style="stroke:#181818;stroke-width:0.5;" x1="135" x2="370" y1="534.0679" y2="534.0679"/><text fill="#000000" font-family="sans-serif" font-size="14" lengthAdjust="spacing" textLength="215" x="145" y="524.9659">LookingForNonSpecialCharacter</text></g><ellipse cx="72.5" cy="530" fill="none" rx="11" ry="11" style="stroke:#222222;stroke-width:1.0;"/><ellipse cx="72.5" cy="530" fill="#222222" rx="6" ry="6" style="stroke:#222222;stroke-width:1.0;"/><!--link *start* to LookingForAllRequirements--><g id="link_*start*_LookingForAllRequirements"><path d="M222.5,26.01 C222.5,39.89 222.5,60.97 222.5,80.84 " fill="none" id="*start*-to-LookingForAllRequirements" style="stroke:#181818;stroke-width:1.0;"/><polygon fill="#181818" points="222.5,86.84,226.5,77.84,222.5,81.84,218.5,77.84,222.5,86.84" style="stroke:#181818;stroke-width:1.0;"/></g><!--link LookingForAllRequirements to LookingForCapitalLetter--><g id="link_LookingForAllRequirements_LookingForCapitalLetter"><path d="M198.5,137.19 C176.08,159.78 147.0256,189.0704 124.6356,211.6404 " fill="none" id="LookingForAllRequirements-to-LookingForCapitalLetter" style="stroke:#181818;stroke-width:1.0;"/><polygon fill="#181818" points="120.41,215.9,129.5882,212.3277,123.9314,212.3503,123.9087,206.6935,120.41,215.9" style="stroke:#181818;stroke-width:1.0;"/><text fill="#000000" font-family="sans-serif" font-size="13" lengthAdjust="spacing" textLength="67" x="167.5" y="181.897">[!@#$%&amp;*]</text></g><!--link LookingForAllRequirements to LookingForSpecialCharacter--><g id="link_LookingForAllRequirements_LookingForSpecialCharacter"><path d="M249.3,137.36 C269.4,156.92 296.31,185.97 313.5,216 C328.03,241.39 336.0035,268.03 341.1535,289.88 " fill="none" id="LookingForAllRequirements-to-LookingForSpecialCharacter" style="stroke:#181818;stroke-width:1.0;"/><polygon fill="#181818" points="342.53,295.72,344.3586,286.0424,341.3829,290.8534,336.572,287.8777,342.53,295.72" style="stroke:#181818;stroke-width:1.0;"/><text fill="#000000" font-family="sans-serif" font-size="13" lengthAdjust="spacing" textLength="27" x="292.5" y="181.897">[A-Z]</text></g><!--link LookingForAllRequirements to LookingForAllRequirements--><g id="link_LookingForAllRequirements_LookingForAllRequirements"><path d="M325.04,102.29 C345.45,103.39 360,106.62 360,112 C360,117.38 351.4413,120.2871 331.0313,121.3871 " fill="none" id="LookingForAllRequirements-to-LookingForAllRequirements" style="stroke:#181818;stroke-width:1.0;"/><polygon fill="#181818" points="325.04,121.71,334.2422,125.2198,330.0328,121.4409,333.8117,117.2314,325.04,121.71" style="stroke:#181818;stroke-width:1.0;"/><text fill="#000000" font-family="sans-serif" font-size="13" lengthAdjust="spacing" textLength="80" x="366" y="117.397">anything else</text></g><!--link LookingForCapitalLetter to Valid--><g id="link_LookingForCapitalLetter_Valid"><path d="M98.81,266.34 C101.64,296.12 105.8223,340.2469 108.6423,369.9169 " fill="none" id="LookingForCapitalLetter-to-Valid" style="stroke:#181818;stroke-width:1.0;"/><polygon fill="#181818" points="109.21,375.89,112.3405,366.5519,108.7369,370.9124,104.3764,367.3089,109.21,375.89" style="stroke:#181818;stroke-width:1.0;"/><text fill="#000000" font-family="sans-serif" font-size="13" lengthAdjust="spacing" textLength="27" x="107.5" y="326.397">[A-Z]</text></g><!--link LookingForCapitalLetter to LookingForCapitalLetter--><g id="link_LookingForCapitalLetter_LookingForCapitalLetter"><path d="M186.03,229.29 C206.23,230.35 221,234.25 221,241 C221,247.75 212.2218,251.3356 192.0218,252.3956 " fill="none" id="LookingForCapitalLetter-to-LookingForCapitalLetter" style="stroke:#181818;stroke-width:1.0;"/><polygon fill="#181818" points="186.03,252.71,195.2272,256.2329,191.0231,252.448,194.808,248.2439,186.03,252.71" style="stroke:#181818;stroke-width:1.0;"/><text fill="#000000" font-family="sans-serif" font-size="13" lengthAdjust="spacing" textLength="80" x="227" y="246.397">anything else</text></g><!--link LookingForSpecialCharacter to LookingForNonSpecialCharacter--><g id="link_LookingForSpecialCharacter_LookingForNonSpecialCharacter"><path d="M344.44,346.21 C339.65,377.63 328.37,433.34 304.5,475 C298.29,485.84 293.6651,491.9098 285.0151,500.5498 " fill="none" id="LookingForSpecialCharacter-to-LookingForNonSpecialCharacter" style="stroke:#181818;stroke-width:1.0;"/><polygon fill="#181818" points="280.77,504.79,289.9644,501.2598,284.3076,501.2565,284.3108,495.5997,280.77,504.79" style="stroke:#181818;stroke-width:1.0;"/><text fill="#000000" font-family="sans-serif" font-size="13" lengthAdjust="spacing" textLength="67" x="339.5" y="406.397">[!@#$%&amp;*]</text></g><!--link LookingForSpecialCharacter to LookingForSpecialCharacter--><g id="link_LookingForSpecialCharacter_LookingForSpecialCharacter"><path d="M451.09,306.64 C471.49,308.28 486,313.07 486,321 C486,328.93 477.4707,333.2392 457.0707,334.8792 " fill="none" id="LookingForSpecialCharacter-to-LookingForSpecialCharacter" style="stroke:#181818;stroke-width:1.0;"/><polygon fill="#181818" points="451.09,335.36,460.3816,338.6259,456.0739,334.9593,459.7405,330.6517,451.09,335.36" style="stroke:#181818;stroke-width:1.0;"/><text fill="#000000" font-family="sans-serif" font-size="13" lengthAdjust="spacing" textLength="80" x="492" y="326.397">anything else</text></g><!--link LookingForNonSpecialCharacter to LookingForNonSpecialCharacter--><g id="link_LookingForNonSpecialCharacter_LookingForNonSpecialCharacter"><path d="M370.15,518.75 C390.7,520.25 405,524 405,530 C405,536 396.6841,539.3132 376.1341,540.8132 " fill="none" id="LookingForNonSpecialCharacter-to-LookingForNonSpecialCharacter" style="stroke:#181818;stroke-width:1.0;"/><polygon fill="#181818" points="370.15,541.25,379.4173,544.5842,375.1367,540.886,378.8349,536.6054,370.15,541.25" style="stroke:#181818;stroke-width:1.0;"/><text fill="#000000" font-family="sans-serif" font-size="13" lengthAdjust="spacing" textLength="67" x="411" y="535.397">[!@#$%&amp;*]</text></g><!--link LookingForNonSpecialCharacter to Valid--><g id="link_LookingForNonSpecialCharacter_Valid"><path d="M166.78,504.96 C151.94,497.45 137.95,487.68 127.5,475 C116.28,461.38 112.888,447.6147 111.778,432.0947 " fill="none" id="LookingForNonSpecialCharacter-to-Valid" style="stroke:#181818;stroke-width:1.0;"/><polygon fill="#181818" points="111.35,426.11,108.0022,435.3724,111.7067,431.0973,115.9819,434.8017,111.35,426.11" style="stroke:#181818;stroke-width:1.0;"/><text fill="#000000" font-family="sans-serif" font-size="13" lengthAdjust="spacing" textLength="80" x="128.5" y="470.897">anything else</text></g><!--link Valid to LookingForNonSpecialCharacter--><g id="link_Valid_LookingForNonSpecialCharacter"><path d="M138.08,411.02 C160.43,419.7 192.07,434.65 213.5,456 C227.24,469.69 235.0198,483.7068 241.4898,499.1368 " fill="none" id="Valid-to-LookingForNonSpecialCharacter" style="stroke:#181818;stroke-width:1.0;"/><polygon fill="#181818" points="243.81,504.67,244.0186,494.8234,241.8765,500.059,236.6409,497.9169,243.81,504.67" style="stroke:#181818;stroke-width:1.0;"/><text fill="#000000" font-family="sans-serif" font-size="13" lengthAdjust="spacing" textLength="67" x="228.5" y="470.897">[!@#$%&amp;*]</text></g><!--link Valid to *end*--><g id="link_Valid_*end*"><path d="M103.82,426.17 C100.88,435.49 97.51,446.23 94.5,456 C87.56,478.52 81.3536,499.2599 77.1636,513.3199 " fill="none" id="Valid-to-*end*" style="stroke:#181818;stroke-width:1.0;"/><polygon fill="#181818" points="75.45,519.07,81.8538,511.5872,76.878,514.2783,74.187,509.3025,75.45,519.07" style="stroke:#181818;stroke-width:1.0;"/></g><!--link Valid to Valid--><g id="link_Valid_Valid"><path d="M138.05,390.06 C155.76,386.98 173,390.62 173,401 C173,411.38 161.6713,416.048 143.9613,412.968 " fill="none" id="Valid-to-Valid" style="stroke:#181818;stroke-width:1.0;"/><polygon fill="#181818" points="138.05,411.94,146.2315,417.4229,142.9761,412.7967,147.6023,409.5412,138.05,411.94" style="stroke:#181818;stroke-width:1.0;"/><text fill="#000000" font-family="sans-serif" font-size="13" lengthAdjust="spacing" textLength="80" x="179" y="406.397">anything else</text></g><!--SRC=[YzQALT3LjLFmoS_FpinBTyilSip92KejBCqiIirDpIifvkB2AOMcqJcn8BCaCSSdjQGajSXA8LhHGLb5LKqhbcW3WWjIapCJSvmp4eiIao5cEEf64QyVJTPA8J6liYG3AAUGcbESYkmH5AU2JGbBpCbCmRGGKo5E_-Aq3DrRQCRuvUTXyJYMm2DW3gOXE5s4nKfo7ONBA6XueZa1B0gMZmQQWk1XLOsG9jfT0000]--></g></svg>