<?xml version="1.0" encoding="us-ascii" standalone="no"?><svg xmlns="http://www.w3.org/2000/svg" xmlns:xlink="http://www.w3.org/1999/xlink" contentStyleType="text/css" height="1000px" preserveAspectRatio="none" style="width:1020px;height:1000px;background:#FFFFFF;" version="1.1" viewBox="0 0 1020 1000" width="1020px" zoomAndPan="magnify"><defs/><g><ellipse cx="754.5" cy="16" fill="#222222" rx="10" ry="10" style="stroke:#222222;stroke-width:1.0;"/><g id="LookingForFirstCharPartA"><rect fill="#F1F1F1" height="50" rx="12.5" ry="12.5" style="stroke:#181818;stroke-width:0.5;" width="190" x="659.5" y="87"/><line style="stroke:#181818;stroke-width:0.5;" x1="659.5" x2="849.5" y1="116.0679" y2="116.0679"/><text fill="#000000" font-family="sans-serif" font-size="14" lengthAdjust="spacing" textLength="170" x="669.5" y="106.9659">LookingForFirstCharPartA</text></g><g id="WaitingForAtSymbol"><rect fill="#F1F1F1" height="50" rx="12.5" ry="12.5" style="stroke:#181818;stroke-width:0.5;" width="156" x="495.5" y="216"/><line style="stroke:#181818;stroke-width:0.5;" x1="495.5" x2="651.5" y1="245.0679" y2="245.0679"/><text fill="#000000" font-family="sans-serif" font-size="14" lengthAdjust="spacing" textLength="136" x="505.5" y="235.9659">WaitingForAtSymbol</text></g><g id="Invalid"><rect fill="#F1F1F1" height="50" rx="12.5" ry="12.5" style="stroke:#181818;stroke-width:0.5;" width="66" x="499.5" y="861"/><line style="stroke:#181818;stroke-width:0.5;" x1="499.5" x2="565.5" y1="890.0679" y2="890.0679"/><text fill="#000000" font-family="sans-serif" font-size="14" lengthAdjust="spacing" textLength="46" x="509.5" y="880.9659">Invalid</text></g><g id="LookingForFirstCharPartB"><rect fill="#F1F1F1" height="50" rx="12.5" ry="12.5" style="stroke:#181818;stroke-width:0.5;" width="190" x="478.5" y="345"/><line style="stroke:#181818;stroke-width:0.5;" x1="478.5" x2="668.5" y1="374.0679" y2="374.0679"/><text fill="#000000" font-family="sans-serif" font-size="14" lengthAdjust="spacing" textLength="170" x="488.5" y="364.9659">LookingForFirstCharPartB</text></g><g id="WaitingForPeriod"><rect fill="#F1F1F1" height="50" rx="12.5" ry="12.5" style="stroke:#181818;stroke-width:0.5;" width="136" x="199.5" y="474"/><line style="stroke:#181818;stroke-width:0.5;" x1="199.5" x2="335.5" y1="503.0679" y2="503.0679"/><text fill="#000000" font-family="sans-serif" font-size="14" lengthAdjust="spacing" textLength="116" x="209.5" y="493.9659">WaitingForPeriod</text></g><g id="LookingForFirstCharPartC"><rect fill="#F1F1F1" height="50" rx="12.5" ry="12.5" style="stroke:#181818;stroke-width:0.5;" width="190" x="172.5" y="603"/><line style="stroke:#181818;stroke-width:0.5;" x1="172.5" x2="362.5" y1="632.0679" y2="632.0679"/><text fill="#000000" font-family="sans-serif" font-size="14" lengthAdjust="spacing" textLength="170" x="182.5" y="622.9659">LookingForFirstCharPartC</text></g><g id="Valid"><rect fill="#F1F1F1" height="50" rx="12.5" ry="12.5" style="stroke:#181818;stroke-width:0.5;" width="53" x="7" y="732"/><line style="stroke:#181818;stroke-width:0.5;" x1="7" x2="60" y1="761.0679" y2="761.0679"/><text fill="#000000" font-family="sans-serif" font-size="14" lengthAdjust="spacing" textLength="33" x="17" y="751.9659">Valid</text></g><ellipse cx="92.5" cy="983" fill="none" rx="11" ry="11" style="stroke:#222222;stroke-width:1.0;"/><ellipse cx="92.5" cy="983" fill="#222222" rx="6" ry="6" style="stroke:#222222;stroke-width:1.0;"/><!--link *start* to LookingForFirstCharPartA--><g id="link_*start*_LookingForFirstCharPartA"><path d="M754.5,26.01 C754.5,39.89 754.5,60.97 754.5,80.84 " fill="none" id="*start*-to-LookingForFirstCharPartA" style="stroke:#181818;stroke-width:1.0;"/><polygon fill="#181818" points="754.5,86.84,758.5,77.84,754.5,81.84,750.5,77.84,754.5,86.84" style="stroke:#181818;stroke-width:1.0;"/></g><!--link LookingForFirstCharPartA to WaitingForAtSymbol--><g id="link_LookingForFirstCharPartA_WaitingForAtSymbol"><path d="M720.03,137.19 C687.82,159.78 644.9217,189.884 612.7517,212.454 " fill="none" id="LookingForFirstCharPartA-to-WaitingForAtSymbol" style="stroke:#181818;stroke-width:1.0;"/><polygon fill="#181818" points="607.84,215.9,617.5049,214.0055,611.9331,213.0283,612.9103,207.4565,607.84,215.9" style="stroke:#181818;stroke-width:1.0;"/><text fill="#000000" font-family="sans-serif" font-size="13" lengthAdjust="spacing" textLength="202" x="676.5" y="181.897">any character except '@' or SPACE</text></g><!--link LookingForFirstCharPartA to Invalid--><g id="link_LookingForFirstCharPartA_Invalid"><path d="M839.64,137.08 C887.01,156.24 936.5,188.56 936.5,240 C936.5,240 936.5,240 936.5,758 C936.5,835.57 668.0164,870.9162 571.5264,881.1662 " fill="none" id="LookingForFirstCharPartA-to-Invalid" style="stroke:#181818;stroke-width:1.0;"/><polygon fill="#181818" points="565.56,881.8,574.9322,884.8269,570.532,881.2718,574.0871,876.8717,565.56,881.8" style="stroke:#181818;stroke-width:1.0;"/><text fill="#000000" font-family="sans-serif" font-size="13" lengthAdjust="spacing" textLength="75" x="937.5" y="504.397">'@' or SPACE</text></g><!--link WaitingForAtSymbol to LookingForFirstCharPartB--><g id="link_WaitingForAtSymbol_LookingForFirstCharPartB"><path d="M573.5,266.19 C573.5,288.78 573.5,316.33 573.5,338.9 " fill="none" id="WaitingForAtSymbol-to-LookingForFirstCharPartB" style="stroke:#181818;stroke-width:1.0;"/><polygon fill="#181818" points="573.5,344.9,577.5,335.9,573.5,339.9,569.5,335.9,573.5,344.9" style="stroke:#181818;stroke-width:1.0;"/><text fill="#000000" font-family="sans-serif" font-size="13" lengthAdjust="spacing" textLength="18" x="574.5" y="310.897">'@'</text></g><!--link WaitingForAtSymbol to WaitingForAtSymbol--><g id="link_WaitingForAtSymbol_WaitingForAtSymbol"><path d="M651.66,229.14 C671.56,229.92 686.5,233.88 686.5,241 C686.5,248.12 677.5554,251.845 657.6554,252.625 " fill="none" id="WaitingForAtSymbol-to-WaitingForAtSymbol" style="stroke:#181818;stroke-width:1.0;"/><polygon fill="#181818" points="651.66,252.86,660.8098,256.5044,656.6562,252.6642,660.4964,248.5106,651.66,252.86" style="stroke:#181818;stroke-width:1.0;"/><text fill="#000000" font-family="sans-serif" font-size="13" lengthAdjust="spacing" textLength="202" x="692.5" y="246.397">any character except '@' or SPACE</text></g><!--link WaitingForAtSymbol to Invalid--><g id="link_WaitingForAtSymbol_Invalid"><path d="M651.54,254.92 C713.75,270.21 790.5,302.54 790.5,369 C790.5,369 790.5,369 790.5,758 C790.5,857.1 641.3659,878.4585 571.6859,883.2485 " fill="none" id="WaitingForAtSymbol-to-Invalid" style="stroke:#181818;stroke-width:1.0;"/><polygon fill="#181818" points="565.7,883.66,574.9531,887.0334,570.6882,883.3171,574.4045,879.0522,565.7,883.66" style="stroke:#181818;stroke-width:1.0;"/><text fill="#000000" font-family="sans-serif" font-size="13" lengthAdjust="spacing" textLength="38" x="791.5" y="568.897">SPACE</text></g><!--link LookingForFirstCharPartB to WaitingForPeriod--><g id="link_LookingForFirstCharPartB_WaitingForPeriod"><path d="M478.34,394.23 C449.58,402.53 418.28,412.88 390.5,425 C359.43,438.55 331.5495,455.1382 307.5995,470.7182 " fill="none" id="LookingForFirstCharPartB-to-WaitingForPeriod" style="stroke:#181818;stroke-width:1.0;"/><polygon fill="#181818" points="302.57,473.99,312.2954,472.4353,306.7612,471.2635,307.933,465.7294,302.57,473.99" style="stroke:#181818;stroke-width:1.0;"/><text fill="#000000" font-family="sans-serif" font-size="13" lengthAdjust="spacing" textLength="214" x="391.5" y="439.897">any character except '@' SPACE or '.'</text></g><!--link LookingForFirstCharPartB to Invalid--><g id="link_LookingForFirstCharPartB_Invalid"><path d="M592.49,395.23 C609.74,419.72 632.5,459.34 632.5,498 C632.5,498 632.5,498 632.5,758 C632.5,802.2 599.3898,836.4011 570.2598,859.0111 " fill="none" id="LookingForFirstCharPartB-to-Invalid" style="stroke:#181818;stroke-width:1.0;"/><polygon fill="#181818" points="565.52,862.69,575.0823,860.3315,569.4698,859.6242,570.1771,854.0118,565.52,862.69" style="stroke:#181818;stroke-width:1.0;"/><text fill="#000000" font-family="sans-serif" font-size="13" lengthAdjust="spacing" textLength="103" x="633.5" y="633.397">'@' or SPACE or '.'</text></g><!--link WaitingForPeriod to LookingForFirstCharPartC--><g id="link_WaitingForPeriod_LookingForFirstCharPartC"><path d="M267.5,524.19 C267.5,546.78 267.5,574.33 267.5,596.9 " fill="none" id="WaitingForPeriod-to-LookingForFirstCharPartC" style="stroke:#181818;stroke-width:1.0;"/><polygon fill="#181818" points="267.5,602.9,271.5,593.9,267.5,597.9,263.5,593.9,267.5,602.9" style="stroke:#181818;stroke-width:1.0;"/><text fill="#000000" font-family="sans-serif" font-size="13" lengthAdjust="spacing" textLength="9" x="268.5" y="568.897">'.'</text></g><!--link WaitingForPeriod to WaitingForPeriod--><g id="link_WaitingForPeriod_WaitingForPeriod"><path d="M335.85,487.05 C355.41,487.52 370.5,491.5 370.5,499 C370.5,506.5 361.4083,510.3359 341.8483,510.8059 " fill="none" id="WaitingForPeriod-to-WaitingForPeriod" style="stroke:#181818;stroke-width:1.0;"/><polygon fill="#181818" points="335.85,510.95,344.9435,514.7327,340.8486,510.8299,344.7513,506.735,335.85,510.95" style="stroke:#181818;stroke-width:1.0;"/><text fill="#000000" font-family="sans-serif" font-size="13" lengthAdjust="spacing" textLength="214" x="376.5" y="504.397">any character except '@' SPACE or '.'</text></g><!--link WaitingForPeriod to Invalid--><g id="link_WaitingForPeriod_Invalid"><path d="M306.05,524.12 C361.69,561.24 463.01,638.04 510.5,732 C531.56,773.67 534.2555,823.3808 533.7555,854.7908 " fill="none" id="WaitingForPeriod-to-Invalid" style="stroke:#181818;stroke-width:1.0;"/><polygon fill="#181818" points="533.66,860.79,537.8027,851.8548,533.7396,855.7906,529.8038,851.7275,533.66,860.79" style="stroke:#181818;stroke-width:1.0;"/><text fill="#000000" font-family="sans-serif" font-size="13" lengthAdjust="spacing" textLength="75" x="494.5" y="697.897">'@' or SPACE</text></g><!--link LookingForFirstCharPartC to Valid--><g id="link_LookingForFirstCharPartC_Valid"><path d="M197.6,653.05 C176.19,661.44 152.9,671.64 132.5,683 C106.56,697.44 84.2791,713.9517 65.0491,729.4717 " fill="none" id="LookingForFirstCharPartC-to-Valid" style="stroke:#181818;stroke-width:1.0;"/><polygon fill="#181818" points="60.38,733.24,69.8958,730.7003,64.2709,730.0998,64.8714,724.4749,60.38,733.24" style="stroke:#181818;stroke-width:1.0;"/><text fill="#000000" font-family="sans-serif" font-size="13" lengthAdjust="spacing" textLength="214" x="133.5" y="697.897">any character except '@' SPACE or '.'</text></g><!--link LookingForFirstCharPartC to Invalid--><g id="link_LookingForFirstCharPartC_Invalid"><path d="M315.54,653.18 C328.66,661.38 342.1,671.43 352.5,683 C385.32,719.51 370.55,743.89 401.5,782 C429.4,816.36 465.7155,843.1759 494.4655,861.8159 " fill="none" id="LookingForFirstCharPartC-to-Invalid" style="stroke:#181818;stroke-width:1.0;"/><polygon fill="#181818" points="499.5,865.08,494.1244,856.8276,495.3046,862.3599,489.7723,863.5402,499.5,865.08" style="stroke:#181818;stroke-width:1.0;"/><text fill="#000000" font-family="sans-serif" font-size="13" lengthAdjust="spacing" textLength="103" x="402.5" y="762.397">'@' or SPACE or '.'</text></g><!--link Valid to Valid--><g id="link_Valid_Valid"><path d="M60.05,746.06 C77.76,742.98 95,746.62 95,757 C95,767.38 83.6713,772.048 65.9613,768.968 " fill="none" id="Valid-to-Valid" style="stroke:#181818;stroke-width:1.0;"/><polygon fill="#181818" points="60.05,767.94,68.2315,773.4229,64.9761,768.7967,69.6023,765.5412,60.05,767.94" style="stroke:#181818;stroke-width:1.0;"/><text fill="#000000" font-family="sans-serif" font-size="13" lengthAdjust="spacing" textLength="214" x="101" y="762.397">any character except '@' SPACE or '.'</text></g><!--link Valid to *end*--><g id="link_Valid_*end*"><path d="M39.93,782.4 C52.77,831.16 79.5922,932.9978 88.3422,966.2278 " fill="none" id="Valid-to-*end*" style="stroke:#181818;stroke-width:1.0;"/><polygon fill="#181818" points="89.87,972.03,91.4464,962.3081,88.5968,967.1948,83.7101,964.3452,89.87,972.03" style="stroke:#181818;stroke-width:1.0;"/></g><!--link Valid to Invalid--><g id="link_Valid_Invalid"><path d="M60.28,768.77 C99.81,784.32 176.35,813.16 243.5,831 C334.76,855.24 439.1111,871.7956 493.2611,879.5856 " fill="none" id="Valid-to-Invalid" style="stroke:#181818;stroke-width:1.0;"/><polygon fill="#181818" points="499.2,880.44,490.8613,875.1992,494.2509,879.728,489.7221,883.1177,499.2,880.44" style="stroke:#181818;stroke-width:1.0;"/><text fill="#000000" font-family="sans-serif" font-size="13" lengthAdjust="spacing" textLength="103" x="244.5" y="826.897">'@' or SPACE or '.'</text></g><!--link Invalid to *end*--><g id="link_Invalid_*end*"><path d="M499.43,894.14 C408.49,913.77 163.6748,966.6333 108.9948,978.4433 " fill="none" id="Invalid-to-*end*" style="stroke:#181818;stroke-width:1.0;"/><polygon fill="#181818" points="103.13,979.71,112.7716,981.7198,108.0173,978.6544,111.0827,973.9001,103.13,979.71" style="stroke:#181818;stroke-width:1.0;"/></g><!--SRC=[fP7D2e9058NtynHtDo3O0xY8R4W8MWX2BSJ5f4CDcHEt8VBjgz6ip1dwMShrEz_XJEfbuFjZM2YrazKcKXX9F6gsvHXpr24Xjel1LbpgvXZgfDwlLHa0hsh8ht_nN0i4SSx5GGETK508IHoocJjoNfruAOlW5I7l9bVlgS5jq6-jBM5TtxQehL7F70kKgd1uJTpDJaVK7Jgus9qaVQLhDXOOPX3vjVfWcEMHRRKCiso8lmPZ7mncFDyR7rZgPKzVRbbxxRWB]--></g></svg>