<?xml version="1.0" encoding="us-ascii" standalone="no"?><svg xmlns="http://www.w3.org/2000/svg" xmlns:xlink="http://www.w3.org/1999/xlink" contentStyleType="text/css" height="742px" preserveAspectRatio="none" style="width:576px;height:742px;background:#FFFFFF;" version="1.1" viewBox="0 0 576 742" width="576px" zoomAndPan="magnify"><defs/><g><ellipse cx="310.41" cy="16" fill="#222222" rx="10" ry="10" style="stroke:#222222;stroke-width:1.0;"/><g id="LookingForZeroFirst"><rect fill="#F1F1F1" height="50" rx="12.5" ry="12.5" style="stroke:#181818;stroke-width:0.5;" width="152" x="234.41" y="87"/><line style="stroke:#181818;stroke-width:0.5;" x1="234.41" x2="386.41" y1="116.0679" y2="116.0679"/><text fill="#000000" font-family="sans-serif" font-size="14" lengthAdjust="spacing" textLength="132" x="244.41" y="106.9659">LookingForZeroFirst</text></g><g id="PeriodRequired"><rect fill="#F1F1F1" height="50" rx="12.5" ry="12.5" style="stroke:#181818;stroke-width:0.5;" width="125" x="81.91" y="216"/><line style="stroke:#181818;stroke-width:0.5;" x1="81.91" x2="206.91" y1="245.0679" y2="245.0679"/><text fill="#000000" font-family="sans-serif" font-size="14" lengthAdjust="spacing" textLength="105" x="91.91" y="235.9659">PeriodRequired</text></g><g id="WaitingForPeriod"><rect fill="#F1F1F1" height="50" rx="12.5" ry="12.5" style="stroke:#181818;stroke-width:0.5;" width="136" x="242.41" y="216"/><line style="stroke:#181818;stroke-width:0.5;" x1="242.41" x2="378.41" y1="245.0679" y2="245.0679"/><text fill="#000000" font-family="sans-serif" font-size="14" lengthAdjust="spacing" textLength="116" x="252.41" y="235.9659">WaitingForPeriod</text></g><g id="NotFloat"><rect fill="#F1F1F1" height="50" rx="12.5" ry="12.5" style="stroke:#181818;stroke-width:0.5;" width="76" x="173.41" y="603"/><line style="stroke:#181818;stroke-width:0.5;" x1="173.41" x2="249.41" y1="632.0679" y2="632.0679"/><text fill="#000000" font-family="sans-serif" font-size="14" lengthAdjust="spacing" textLength="56" x="183.41" y="622.9659">NotFloat</text></g><g id="DigitRequired"><rect fill="#F1F1F1" height="50" rx="12.5" ry="12.5" style="stroke:#181818;stroke-width:0.5;" width="114" x="164.41" y="345"/><line style="stroke:#181818;stroke-width:0.5;" x1="164.41" x2="278.41" y1="374.0679" y2="374.0679"/><text fill="#000000" font-family="sans-serif" font-size="14" lengthAdjust="spacing" textLength="94" x="174.41" y="364.9659">DigitRequired</text></g><g id="Float"><rect fill="#F1F1F1" height="50" rx="12.5" ry="12.5" style="stroke:#181818;stroke-width:0.5;" width="52" x="69.41" y="474"/><line style="stroke:#181818;stroke-width:0.5;" x1="69.41" x2="121.41" y1="503.0679" y2="503.0679"/><text fill="#000000" font-family="sans-serif" font-size="14" lengthAdjust="spacing" textLength="32" x="79.41" y="493.9659">Float</text></g><ellipse cx="104.41" cy="725" fill="none" rx="11" ry="11" style="stroke:#222222;stroke-width:1.0;"/><ellipse cx="104.41" cy="725" fill="#222222" rx="6" ry="6" style="stroke:#222222;stroke-width:1.0;"/><!--link *start* to LookingForZeroFirst--><g id="link_*start*_LookingForZeroFirst"><path d="M310.41,26.01 C310.41,39.89 310.41,60.97 310.41,80.84 " fill="none" id="*start*-to-LookingForZeroFirst" style="stroke:#181818;stroke-width:1.0;"/><polygon fill="#181818" points="310.41,86.84,314.41,77.84,310.41,81.84,306.41,77.84,310.41,86.84" style="stroke:#181818;stroke-width:1.0;"/></g><!--link LookingForZeroFirst to PeriodRequired--><g id="link_LookingForZeroFirst_PeriodRequired"><path d="M278.8,137.19 C249.26,159.78 210.1753,189.6842 180.6753,212.2542 " fill="none" id="LookingForZeroFirst-to-PeriodRequired" style="stroke:#181818;stroke-width:1.0;"/><polygon fill="#181818" points="175.91,215.9,185.4885,213.6081,179.8811,212.8618,180.6274,207.2544,175.91,215.9" style="stroke:#181818;stroke-width:1.0;"/><text fill="#000000" font-family="sans-serif" font-size="13" lengthAdjust="spacing" textLength="7" x="238.41" y="181.897">0</text></g><!--link LookingForZeroFirst to WaitingForPeriod--><g id="link_LookingForZeroFirst_WaitingForPeriod"><path d="M310.41,137.19 C310.41,159.78 310.41,187.33 310.41,209.9 " fill="none" id="LookingForZeroFirst-to-WaitingForPeriod" style="stroke:#181818;stroke-width:1.0;"/><polygon fill="#181818" points="310.41,215.9,314.41,206.9,310.41,210.9,306.41,206.9,310.41,215.9" style="stroke:#181818;stroke-width:1.0;"/><text fill="#000000" font-family="sans-serif" font-size="13" lengthAdjust="spacing" textLength="26" x="311.41" y="181.897">[1-9]</text></g><!--link LookingForZeroFirst to NotFloat--><g id="link_LookingForZeroFirst_NotFloat"><path d="M386.5,134.98 C434.47,154.03 487.41,187.05 487.41,240 C487.41,240 487.41,240 487.41,500 C487.41,603.51 331.2039,622.6885 255.4939,626.1185 " fill="none" id="LookingForZeroFirst-to-NotFloat" style="stroke:#181818;stroke-width:1.0;"/><polygon fill="#181818" points="249.5,626.39,258.6718,629.9786,254.4949,626.1637,258.3097,621.9868,249.5,626.39" style="stroke:#181818;stroke-width:1.0;"/><text fill="#000000" font-family="sans-serif" font-size="13" lengthAdjust="spacing" textLength="80" x="488.41" y="375.397">anything else</text></g><!--link PeriodRequired to DigitRequired--><g id="link_PeriodRequired_DigitRequired"><path d="M159.07,266.19 C172.78,288.78 190.01,317.1989 203.69,339.7689 " fill="none" id="PeriodRequired-to-DigitRequired" style="stroke:#181818;stroke-width:1.0;"/><polygon fill="#181818" points="206.8,344.9,205.5557,335.1301,204.2083,340.6241,198.7143,339.2767,206.8,344.9" style="stroke:#181818;stroke-width:1.0;"/><text fill="#000000" font-family="sans-serif" font-size="13" lengthAdjust="spacing" textLength="3" x="189.41" y="310.897">.</text></g><!--link PeriodRequired to NotFloat--><g id="link_PeriodRequired_NotFloat"><path d="M124,266.34 C84.64,316.39 6,433.74 51.41,524 C75.68,572.25 128.5889,598.8086 167.7089,613.1986 " fill="none" id="PeriodRequired-to-NotFloat" style="stroke:#181818;stroke-width:1.0;"/><polygon fill="#181818" points="173.34,615.27,166.2742,608.4089,168.6474,613.5439,163.5124,615.917,173.34,615.27" style="stroke:#181818;stroke-width:1.0;"/><text fill="#000000" font-family="sans-serif" font-size="13" lengthAdjust="spacing" textLength="80" x="43.41" y="439.897">anything else</text></g><!--link WaitingForPeriod to DigitRequired--><g id="link_WaitingForPeriod_DigitRequired"><path d="M293.46,266.19 C277.62,288.78 257.5524,317.4157 241.7424,339.9857 " fill="none" id="WaitingForPeriod-to-DigitRequired" style="stroke:#181818;stroke-width:1.0;"/><polygon fill="#181818" points="238.3,344.9,246.7397,339.8235,241.1687,340.8048,240.1874,335.2337,238.3,344.9" style="stroke:#181818;stroke-width:1.0;"/><text fill="#000000" font-family="sans-serif" font-size="13" lengthAdjust="spacing" textLength="3" x="272.41" y="310.897">.</text></g><!--link WaitingForPeriod to WaitingForPeriod--><g id="link_WaitingForPeriod_WaitingForPeriod"><path d="M378.75,229.05 C398.32,229.52 413.41,233.5 413.41,241 C413.41,248.5 404.3183,252.3359 384.7483,252.8059 " fill="none" id="WaitingForPeriod-to-WaitingForPeriod" style="stroke:#181818;stroke-width:1.0;"/><polygon fill="#181818" points="378.75,252.95,387.8434,256.7328,383.7486,252.83,387.6514,248.7351,378.75,252.95" style="stroke:#181818;stroke-width:1.0;"/><text fill="#000000" font-family="sans-serif" font-size="13" lengthAdjust="spacing" textLength="26" x="419.41" y="246.397">[0-9]</text></g><!--link WaitingForPeriod to NotFloat--><g id="link_WaitingForPeriod_NotFloat"><path d="M317.95,266.29 C332.23,316.76 358.5,435.59 320.41,524 C306.04,557.36 279.8298,581.4349 254.5298,599.6449 " fill="none" id="WaitingForPeriod-to-NotFloat" style="stroke:#181818;stroke-width:1.0;"/><polygon fill="#181818" points="249.66,603.15,259.3013,601.1389,253.7181,600.2291,254.6279,594.6459,249.66,603.15" style="stroke:#181818;stroke-width:1.0;"/><text fill="#000000" font-family="sans-serif" font-size="13" lengthAdjust="spacing" textLength="80" x="341.41" y="439.897">anything else</text></g><!--link DigitRequired to Float--><g id="link_DigitRequired_Float"><path d="M197.41,395.19 C174.99,417.78 145.9356,447.0704 123.5456,469.6404 " fill="none" id="DigitRequired-to-Float" style="stroke:#181818;stroke-width:1.0;"/><polygon fill="#181818" points="119.32,473.9,128.4982,470.3277,122.8414,470.3503,122.8187,464.6935,119.32,473.9" style="stroke:#181818;stroke-width:1.0;"/><text fill="#000000" font-family="sans-serif" font-size="13" lengthAdjust="spacing" textLength="26" x="167.41" y="439.897">[0-9]</text></g><!--link DigitRequired to NotFloat--><g id="link_DigitRequired_NotFloat"><path d="M224.15,395.06 C227.97,433.05 233.55,509.15 225.41,573 C224.15,582.9 223.2452,587.7887 220.6852,597.0087 " fill="none" id="DigitRequired-to-NotFloat" style="stroke:#181818;stroke-width:1.0;"/><polygon fill="#181818" points="219.08,602.79,225.342,595.1882,220.4177,597.9723,217.6336,593.0479,219.08,602.79" style="stroke:#181818;stroke-width:1.0;"/><text fill="#000000" font-family="sans-serif" font-size="13" lengthAdjust="spacing" textLength="80" x="231.41" y="504.397">anything else</text></g><!--link Float to Float--><g id="link_Float_Float"><path d="M121.43,488.11 C139.1,484.93 156.41,488.56 156.41,499 C156.41,509.44 145.0051,514.1327 127.3351,510.9527 " fill="none" id="Float-to-Float" style="stroke:#181818;stroke-width:1.0;"/><polygon fill="#181818" points="121.43,509.89,129.5792,515.4208,126.3509,510.7756,130.9962,507.5473,121.43,509.89" style="stroke:#181818;stroke-width:1.0;"/><text fill="#000000" font-family="sans-serif" font-size="13" lengthAdjust="spacing" textLength="26" x="162.41" y="504.397">[0-9]</text></g><!--link Float to *end*--><g id="link_Float_*end*"><path d="M96.39,524.4 C98.34,572.93 102.3885,673.8049 103.7485,707.5649 " fill="none" id="Float-to-*end*" style="stroke:#181818;stroke-width:1.0;"/><polygon fill="#181818" points="103.99,713.56,107.6245,704.4063,103.7887,708.5641,99.631,704.7283,103.99,713.56" style="stroke:#181818;stroke-width:1.0;"/></g><!--link Float to NotFloat--><g id="link_Float_NotFloat"><path d="M106.98,524.25 C114.85,539.26 126.21,558.4 139.41,573 C149.36,584.01 156.9895,590.7583 168.7595,599.3283 " fill="none" id="Float-to-NotFloat" style="stroke:#181818;stroke-width:1.0;"/><polygon fill="#181818" points="173.61,602.86,168.6888,594.3288,169.568,599.9169,163.9798,600.796,173.61,602.86" style="stroke:#181818;stroke-width:1.0;"/><text fill="#000000" font-family="sans-serif" font-size="13" lengthAdjust="spacing" textLength="80" x="140.41" y="568.897">anything else</text></g><!--link NotFloat to *end*--><g id="link_NotFloat_*end*"><path d="M184.13,653.22 C160.36,674.33 131.8866,699.6062 116.8966,712.9162 " fill="none" id="NotFloat-to-*end*" style="stroke:#181818;stroke-width:1.0;"/><polygon fill="#181818" points="112.41,716.9,121.7957,713.9154,116.1488,713.5802,116.4841,707.9333,112.41,716.9" style="stroke:#181818;stroke-width:1.0;"/></g><!--SRC=[YzQALT3LjLFmoS_FpinBTyilYaejodVBB2ekuS8Y1bORa5gKcPyIb5fOcbcKccAbO81JPNXYPWb47AB7IY7QKDSo5gTwl_mIjvpyn18hXSIyof8Ce1A5r9pYL2ukL2l1QbqoqpDB48xGmwO6ftde3iDk8bPLMFna0F8JLiKu7O1Y5rWfL1t4C4nfd2Q1HJ5DG0X7Qo7pS9e3au3h0G00]--></g></svg>