<?xml version="1.0" encoding="us-ascii" standalone="no"?><svg xmlns="http://www.w3.org/2000/svg" xmlns:xlink="http://www.w3.org/1999/xlink" contentStyleType="text/css" height="484px" preserveAspectRatio="none" style="width:263px;height:484px;background:#FFFFFF;" version="1.1" viewBox="0 0 263 484" width="263px" zoomAndPan="magnify"><defs/><g><ellipse cx="48.59" cy="16" fill="#222222" rx="10" ry="10" style="stroke:#222222;stroke-width:1.0;"/><g id="Start"><rect fill="#F1F1F1" height="50" rx="12.5" ry="12.5" style="stroke:#181818;stroke-width:0.5;" width="52" x="22.59" y="87"/><line style="stroke:#181818;stroke-width:0.5;" x1="22.59" x2="74.59" y1="116.0679" y2="116.0679"/><text fill="#000000" font-family="sans-serif" font-size="14" lengthAdjust="spacing" textLength="32" x="32.59" y="106.9659">Start</text></g><g id="Error"><rect fill="#F1F1F1" height="50" rx="12.5" ry="12.5" style="stroke:#181818;stroke-width:0.5;" width="54" x="27.59" y="345"/><line style="stroke:#181818;stroke-width:0.5;" x1="27.59" x2="81.59" y1="374.0679" y2="374.0679"/><text fill="#000000" font-family="sans-serif" font-size="14" lengthAdjust="spacing" textLength="34" x="37.59" y="364.9659">Error</text></g><g id="Integer"><rect fill="#F1F1F1" height="50" rx="12.5" ry="12.5" style="stroke:#181818;stroke-width:0.5;" width="70" x="113.59" y="216"/><line style="stroke:#181818;stroke-width:0.5;" x1="113.59" x2="183.59" y1="245.0679" y2="245.0679"/><text fill="#000000" font-family="sans-serif" font-size="14" lengthAdjust="spacing" textLength="50" x="123.59" y="235.9659">Integer</text></g><ellipse cx="106.59" cy="467" fill="none" rx="11" ry="11" style="stroke:#222222;stroke-width:1.0;"/><ellipse cx="106.59" cy="467" fill="#222222" rx="6" ry="6" style="stroke:#222222;stroke-width:1.0;"/><!--link *start* to Start--><g id="link_*start*_Start"><path d="M48.59,26.01 C48.59,39.89 48.59,60.97 48.59,80.84 " fill="none" id="*start*-to-Start" style="stroke:#181818;stroke-width:1.0;"/><polygon fill="#181818" points="48.59,86.84,52.59,77.84,48.59,81.84,44.59,77.84,48.59,86.84" style="stroke:#181818;stroke-width:1.0;"/></g><!--link Start to Error--><g id="link_Start_Error"><path d="M37.12,137.01 C24.18,167.05 6,220.13 14.59,266 C19.86,294.09 29.9657,318.9603 39.6557,339.3603 " fill="none" id="Start-to-Error" style="stroke:#181818;stroke-width:1.0;"/><polygon fill="#181818" points="42.23,344.78,41.9816,334.9343,40.0847,340.2636,34.7554,338.3667,42.23,344.78" style="stroke:#181818;stroke-width:1.0;"/><text fill="#000000" font-family="sans-serif" font-size="13" lengthAdjust="spacing" textLength="80" x="15.59" y="246.397">anything else</text></g><!--link Start to Integer--><g id="link_Start_Integer"><path d="M67.64,137.19 C85.43,159.78 108.1384,188.6158 125.9084,211.1858 " fill="none" id="Start-to-Integer" style="stroke:#181818;stroke-width:1.0;"/><polygon fill="#181818" points="129.62,215.9,127.1954,206.3543,126.527,211.9715,120.9097,211.3031,129.62,215.9" style="stroke:#181818;stroke-width:1.0;"/><text fill="#000000" font-family="sans-serif" font-size="13" lengthAdjust="spacing" textLength="26" x="104.59" y="181.897">[1-9]</text></g><!--link Integer to Integer--><g id="link_Integer_Integer"><path d="M183.89,229.42 C202.14,227.64 218.59,231.5 218.59,241 C218.59,250.5 208.1117,254.9424 189.8617,253.1624 " fill="none" id="Integer-to-Integer" style="stroke:#181818;stroke-width:1.0;"/><polygon fill="#181818" points="183.89,252.58,192.4592,257.4348,188.8664,253.0654,193.2358,249.4726,183.89,252.58" style="stroke:#181818;stroke-width:1.0;"/><text fill="#000000" font-family="sans-serif" font-size="13" lengthAdjust="spacing" textLength="26" x="224.59" y="246.397">[0-9]</text></g><!--link Integer to *end*--><g id="link_Integer_*end*"><path d="M145.3,266.05 C143.26,280.31 140.49,298.72 137.59,315 C128.08,368.49 115.4634,426.2433 110.1134,450.2833 " fill="none" id="Integer-to-*end*" style="stroke:#181818;stroke-width:1.0;"/><polygon fill="#181818" points="108.81,456.14,114.6696,448.2238,109.8962,451.2594,106.8606,446.486,108.81,456.14" style="stroke:#181818;stroke-width:1.0;"/></g><!--link Integer to Error--><g id="link_Integer_Error"><path d="M113.44,256.98 C88.65,268.34 58.65,283.99 51.59,296 C43.04,310.54 42.9892,323.8014 46.0592,338.8314 " fill="none" id="Integer-to-Error" style="stroke:#181818;stroke-width:1.0;"/><polygon fill="#181818" points="47.26,344.71,49.3779,335.0916,46.2594,339.8111,41.5398,336.6926,47.26,344.71" style="stroke:#181818;stroke-width:1.0;"/><text fill="#000000" font-family="sans-serif" font-size="13" lengthAdjust="spacing" textLength="80" x="52.59" y="310.897">anything else</text></g><!--link Error to *end*--><g id="link_Error_*end*"><path d="M67.98,395.46 C78.94,415.48 90.948,437.4175 98.648,451.4775 " fill="none" id="Error-to-*end*" style="stroke:#181818;stroke-width:1.0;"/><polygon fill="#181818" points="101.53,456.74,100.7153,446.9249,99.1283,452.3546,93.6986,450.7676,101.53,456.74" style="stroke:#181818;stroke-width:1.0;"/></g><!--SRC=[YzQALT3LjLC8BaaiAk42as2-Qr5HVf6LGc9UPKb6PbwwGcfESIgIj6TUIMfwAb11jA6kPImNb8icPO0k5Qs5oiTg2LWGhXm0]--></g></svg>