<?xml version="1.0" encoding="us-ascii" standalone="no"?><svg xmlns="http://www.w3.org/2000/svg" xmlns:xlink="http://www.w3.org/1999/xlink" contentStyleType="text/css" height="484px" preserveAspectRatio="none" style="width:279px;height:484px;background:#FFFFFF;" version="1.1" viewBox="0 0 279 484" width="279px" zoomAndPan="magnify"><defs/><g><ellipse cx="162" cy="16" fill="#222222" rx="10" ry="10" style="stroke:#222222;stroke-width:1.0;"/><g id="LookingForDigit"><rect fill="#F1F1F1" height="50" rx="12.5" ry="12.5" style="stroke:#181818;stroke-width:0.5;" width="125" x="99.5" y="87"/><line style="stroke:#181818;stroke-width:0.5;" x1="99.5" x2="224.5" y1="116.0679" y2="116.0679"/><text fill="#000000" font-family="sans-serif" font-size="14" lengthAdjust="spacing" textLength="105" x="109.5" y="106.9659">LookingForDigit</text></g><g id="Integer"><rect fill="#F1F1F1" height="50" rx="12.5" ry="12.5" style="stroke:#181818;stroke-width:0.5;" width="70" x="7" y="216"/><line style="stroke:#181818;stroke-width:0.5;" x1="7" x2="77" y1="245.0679" y2="245.0679"/><text fill="#000000" font-family="sans-serif" font-size="14" lengthAdjust="spacing" textLength="50" x="17" y="235.9659">Integer</text></g><g id="NotInteger"><rect fill="#F1F1F1" height="50" rx="12.5" ry="12.5" style="stroke:#181818;stroke-width:0.5;" width="94" x="93" y="345"/><line style="stroke:#181818;stroke-width:0.5;" x1="93" x2="187" y1="374.0679" y2="374.0679"/><text fill="#000000" font-family="sans-serif" font-size="14" lengthAdjust="spacing" textLength="74" x="103" y="364.9659">NotInteger</text></g><ellipse cx="60" cy="467" fill="none" rx="11" ry="11" style="stroke:#222222;stroke-width:1.0;"/><ellipse cx="60" cy="467" fill="#222222" rx="6" ry="6" style="stroke:#222222;stroke-width:1.0;"/><!--link *start* to LookingForDigit--><g id="link_*start*_LookingForDigit"><path d="M162,26.01 C162,39.89 162,60.97 162,80.84 " fill="none" id="*start*-to-LookingForDigit" style="stroke:#181818;stroke-width:1.0;"/><polygon fill="#181818" points="162,86.84,166,77.84,162,81.84,158,77.84,162,86.84" style="stroke:#181818;stroke-width:1.0;"/></g><!--link LookingForDigit to Integer--><g id="link_LookingForDigit_Integer"><path d="M139.15,137.19 C117.79,159.78 90.2101,188.9683 68.8901,211.5383 " fill="none" id="LookingForDigit-to-Integer" style="stroke:#181818;stroke-width:1.0;"/><polygon fill="#181818" points="64.77,215.9,73.858,212.1042,68.2034,212.2652,68.0424,206.6107,64.77,215.9" style="stroke:#181818;stroke-width:1.0;"/><text fill="#000000" font-family="sans-serif" font-size="13" lengthAdjust="spacing" textLength="26" x="111" y="181.897">[1-9]</text></g><!--link LookingForDigit to NotInteger--><g id="link_LookingForDigit_NotInteger"><path d="M170.47,137.06 C182.71,175.67 201.73,253.41 181,315 C177.36,325.82 174.346,331.5111 167.346,340.2311 " fill="none" id="LookingForDigit-to-NotInteger" style="stroke:#181818;stroke-width:1.0;"/><polygon fill="#181818" points="163.59,344.91,172.3433,340.3956,166.72,341.0109,166.1047,335.3876,163.59,344.91" style="stroke:#181818;stroke-width:1.0;"/><text fill="#000000" font-family="sans-serif" font-size="13" lengthAdjust="spacing" textLength="80" x="191" y="246.397">anything else</text></g><!--link Integer to Integer--><g id="link_Integer_Integer"><path d="M77.3,229.42 C95.55,227.64 112,231.5 112,241 C112,250.5 101.5217,254.9424 83.2717,253.1624 " fill="none" id="Integer-to-Integer" style="stroke:#181818;stroke-width:1.0;"/><polygon fill="#181818" points="77.3,252.58,85.8692,257.4348,82.2764,253.0654,86.6458,249.4726,77.3,252.58" style="stroke:#181818;stroke-width:1.0;"/><text fill="#000000" font-family="sans-serif" font-size="13" lengthAdjust="spacing" textLength="26" x="118" y="246.397">[0-9]</text></g><!--link Integer to *end*--><g id="link_Integer_*end*"><path d="M43.96,266.4 C47.86,314.93 55.9699,415.8192 58.6799,449.5792 " fill="none" id="Integer-to-*end*" style="stroke:#181818;stroke-width:1.0;"/><polygon fill="#181818" points="59.16,455.56,62.427,446.2688,58.7599,450.576,54.4527,446.9089,59.16,455.56" style="stroke:#181818;stroke-width:1.0;"/></g><!--link Integer to NotInteger--><g id="link_Integer_NotInteger"><path d="M59.03,266.3 C69.23,280.64 82.59,299.06 95,315 C102.72,324.92 107.6493,331.007 115.3993,340.227 " fill="none" id="Integer-to-NotInteger" style="stroke:#181818;stroke-width:1.0;"/><polygon fill="#181818" points="119.26,344.82,116.531,335.3568,116.0428,340.9925,110.407,340.5044,119.26,344.82" style="stroke:#181818;stroke-width:1.0;"/><text fill="#000000" font-family="sans-serif" font-size="13" lengthAdjust="spacing" textLength="80" x="96" y="310.897">anything else</text></g><!--link NotInteger to *end*--><g id="link_NotInteger_*end*"><path d="M119.4,395.46 C101.99,416.14 81.9863,439.9018 70.5263,453.5018 " fill="none" id="NotInteger-to-*end*" style="stroke:#181818;stroke-width:1.0;"/><polygon fill="#181818" points="66.66,458.09,75.5182,453.7851,69.8819,454.2665,69.4006,448.6301,66.66,458.09" style="stroke:#181818;stroke-width:1.0;"/></g><!--SRC=[YzQALT3LjLFmoS_FpinBTyilSibCpopXGkE3rNZcbQIcfnPPAKGRwbh6ObNYbry2LvMOLrcI0LIWa9fJdCe55KOpo01a4B9Kj1Og7xU121cuHW00]--></g></svg>