<?xml version="1.0" encoding="us-ascii" standalone="no"?><svg xmlns="http://www.w3.org/2000/svg" xmlns:xlink="http://www.w3.org/1999/xlink" contentStyleType="text/css" height="373px" preserveAspectRatio="none" style="width:285px;height:373px;background:#FFFFFF;" version="1.1" viewBox="0 0 285 373" width="285px" zoomAndPan="magnify"><defs/><g><!--class State--><g id="elem_State"><rect codeLine="2" fill="#F1F1F1" height="67.0679" id="State" rx="2.5" ry="2.5" style="stroke:#181818;stroke-width:0.5;" width="271" x="7" y="172"/><ellipse cx="122.25" cy="188" fill="#B4A7E5" rx="11" ry="11" style="stroke:#181818;stroke-width:1.0;"/><path d="M118.1719,183.7656 L118.1719,181.6094 L125.5625,181.6094 L125.5625,183.7656 L123.0938,183.7656 L123.0938,191.8438 L125.5625,191.8438 L125.5625,194 L118.1719,194 L118.1719,191.8438 L120.6406,191.8438 L120.6406,183.7656 L118.1719,183.7656 Z " fill="#000000"/><text fill="#000000" font-family="sans-serif" font-size="14" font-style="italic" lengthAdjust="spacing" textLength="32" x="142.75" y="193.432">State</text><line style="stroke:#181818;stroke-width:0.5;" x1="8" x2="277" y1="204" y2="204"/><line style="stroke:#181818;stroke-width:0.5;" x1="8" x2="277" y1="212" y2="212"/><ellipse cx="18" cy="227.034" fill="#84BE84" rx="3" ry="3" style="stroke:#038048;stroke-width:1.0;"/><text fill="#000000" font-family="sans-serif" font-size="14" lengthAdjust="spacing" textLength="245" x="27" y="230.9659">consumeChar(character: char): State</text></g><!--class ConcreteState--><g id="elem_ConcreteState"><rect codeLine="6" fill="#F1F1F1" height="67.0679" id="ConcreteState" rx="2.5" ry="2.5" style="stroke:#181818;stroke-width:0.5;" width="271" x="7" y="299"/><ellipse cx="91.25" cy="315" fill="#ADD1B2" rx="11" ry="11" style="stroke:#181818;stroke-width:1.0;"/><path d="M94.2188,320.6406 Q93.6406,320.9375 93,321.0781 Q92.3594,321.2344 91.6563,321.2344 Q89.1563,321.2344 87.8281,319.5938 Q86.5156,317.9375 86.5156,314.8125 Q86.5156,311.6875 87.8281,310.0313 Q89.1563,308.375 91.6563,308.375 Q92.3594,308.375 93,308.5313 Q93.6563,308.6875 94.2188,308.9844 L94.2188,311.7031 Q93.5938,311.125 93,310.8594 Q92.4063,310.5781 91.7813,310.5781 Q90.4375,310.5781 89.75,311.6563 Q89.0625,312.7188 89.0625,314.8125 Q89.0625,316.9063 89.75,317.9844 Q90.4375,319.0469 91.7813,319.0469 Q92.4063,319.0469 93,318.7813 Q93.5938,318.5 94.2188,317.9219 L94.2188,320.6406 Z " fill="#000000"/><text fill="#000000" font-family="sans-serif" font-size="14" lengthAdjust="spacing" textLength="94" x="111.75" y="320.432">ConcreteState</text><line style="stroke:#181818;stroke-width:0.5;" x1="8" x2="277" y1="331" y2="331"/><line style="stroke:#181818;stroke-width:0.5;" x1="8" x2="277" y1="339" y2="339"/><ellipse cx="18" cy="354.034" fill="#84BE84" rx="3" ry="3" style="stroke:#038048;stroke-width:1.0;"/><text fill="#000000" font-family="sans-serif" font-size="14" lengthAdjust="spacing" textLength="245" x="27" y="357.9659">consumeChar(character: char): State</text></g><!--class StateMachine--><g id="elem_StateMachine"><rect codeLine="10" fill="#F1F1F1" height="105.2038" id="StateMachine" rx="2.5" ry="2.5" style="stroke:#181818;stroke-width:0.5;" width="265" x="10" y="7"/><ellipse cx="92.25" cy="23" fill="#ADD1B2" rx="11" ry="11" style="stroke:#181818;stroke-width:1.0;"/><path d="M95.2188,28.6406 Q94.6406,28.9375 94,29.0781 Q93.3594,29.2344 92.6563,29.2344 Q90.1563,29.2344 88.8281,27.5938 Q87.5156,25.9375 87.5156,22.8125 Q87.5156,19.6875 88.8281,18.0313 Q90.1563,16.375 92.6563,16.375 Q93.3594,16.375 94,16.5313 Q94.6563,16.6875 95.2188,16.9844 L95.2188,19.7031 Q94.5938,19.125 94,18.8594 Q93.4063,18.5781 92.7813,18.5781 Q91.4375,18.5781 90.75,19.6563 Q90.0625,20.7188 90.0625,22.8125 Q90.0625,24.9063 90.75,25.9844 Q91.4375,27.0469 92.7813,27.0469 Q93.4063,27.0469 94,26.7813 Q94.5938,26.5 95.2188,25.9219 L95.2188,28.6406 Z " fill="#000000"/><text fill="#000000" font-family="sans-serif" font-size="14" lengthAdjust="spacing" textLength="92" x="112.75" y="28.432">StateMachine</text><line style="stroke:#181818;stroke-width:0.5;" x1="11" x2="274" y1="39" y2="39"/><rect fill="none" height="6" style="stroke:#C82930;stroke-width:1.0;" width="6" x="18" y="51.034"/><text fill="#000000" font-family="sans-serif" font-size="14" lengthAdjust="spacing" textLength="126" x="30" y="57.9659">currentState: State</text><line style="stroke:#181818;stroke-width:0.5;" x1="11" x2="274" y1="66.0679" y2="66.0679"/><ellipse cx="21" cy="81.1019" fill="#84BE84" rx="3" ry="3" style="stroke:#038048;stroke-width:1.0;"/><text fill="#000000" font-family="sans-serif" font-size="14" lengthAdjust="spacing" textLength="239" x="30" y="85.0339">consumeChar(character: char): void</text><ellipse cx="21" cy="100.1698" fill="#84BE84" rx="3" ry="3" style="stroke:#038048;stroke-width:1.0;"/><text fill="#000000" font-family="sans-serif" font-size="14" lengthAdjust="spacing" textLength="114" x="30" y="104.1018">isValid(): boolean</text></g><!--reverse link State to ConcreteState--><g id="link_State_ConcreteState"><path d="M142.5,257.02 C142.5,275.39 142.5,280.29 142.5,298.71 " fill="none" id="State-backto-ConcreteState" style="stroke:#181818;stroke-width:1.0;stroke-dasharray:7.0,7.0;"/><polygon fill="none" points="142.5,239.02,136.5,257.02,148.5,257.02,142.5,239.02" style="stroke:#181818;stroke-width:1.0;"/></g><!--reverse link StateMachine to State--><g id="link_StateMachine_State"><path codeLine="16" d="M142.5,124.08 C142.5,143.93 142.5,154.04 142.5,171.66 " fill="none" id="StateMachine-backto-State" style="stroke:#181818;stroke-width:1.0;"/><polygon fill="#181818" points="142.5,112.08,138.5,118.08,142.5,124.08,146.5,118.08,142.5,112.08" style="stroke:#181818;stroke-width:1.0;"/></g><!--SRC=[fOsx3i8m34NtV8N70ieFTEtCXCHkNADQIXpaf2o8VoTz3MoLwi7ouzvpHGlR4udXLh0mV1pKkW0bpMFaRa1hg3QagcjX6a_jedLVvoXWpj0b9UF22qBYAt1aBVa8SrwlI8FeHl10era5px_DiOVzJjAlGibt3D8tzVf8AJ3gbFcNTlP-PVy0]--></g></svg>